# xmcd
#
# Track frame offsets:
#	150
#	4527
#	28442
#	50082
#	52295
#	73655
#	95160
#	103367
#
# Disc length: 1687 seconds
#
# Revision: 1
# Processed by: cddbd v1.5.1PL0 Copyright (c) Steve Scherf et al.
# Submitted via: CDex 1.50Beta5
#
DISCID=7b069508
DTITLE=WORD SWINGAZ - Unda II Ova
DYEAR=2000
DGENRE=Rock
TTITLE0=Intro
TTITLE1=Unda II Ova
TTITLE2=遊言導士
TTITLE3=skit
TTITLE4=1本のマイク
TTITLE5=万華鏡
TTITLE6=skit II
TTITLE7=Go For Get It
EXTD=
EXTT0=
EXTT1=
EXTT2=
EXTT3=
EXTT4=
EXTT5=
EXTT6=
EXTT7=
PLAYORDER=
